<?xml version="1.0"?>
<svg version="1.1" id="Layer_1" xmlns="http://www.w3.org/2000/svg" x="0" y="0" viewBox="0 0 100 100" xml:space="preserve"><path d="M68 50c0 7.5-4.8 14.4-11.9 16.9-7.1 2.6-15.3.3-20.1-5.5-4.7-5.8-5.3-14.2-1.5-20.6 3.9-6.5 11.6-9.9 19-8.4C61.9 34 68 41.5 68 50z" fill="#d65a62"/><path d="M39.9 24.1c3.4.9 6.8 2.1 10.1 3.5.3-.1.5-.2.8-.3 4.2-1.7 8.5-3.2 13-4.1-1.9-5.2-5-11.5-10.3-13.9-4.5-2-8.8.5-11.7 4-2.4 2.9-4.1 6.4-5.4 9.9 1.1.2 2.3.5 3.5.9z" fill="#ea7c60"/><path d="M32.8 37.2c2.3-1.6 4.6-3.1 7-4.5h.1c2.4-1.4 5-2.7 7.5-3.9-3.8-1.5-7.8-2.8-11.9-3.6l-.3.9c-1 3.5-1.8 7.3-2.4 11.1z" fill="#a8b980"/><path d="M22.1 46.1c2.6-2.7 5.5-5.1 8.5-7.3.1-1.1.3-2.2.5-3.2.1-.8.1-1.9.5-2.6.1-.7.2-1.3.4-2 .5-2.1 1-4.2 1.7-6.3-5.4-.9-12.4-1.4-17.2 2-4.1 2.9-4 8-2.4 12.2 1.3 3.5 3.5 6.7 5.8 9.6.7-.8 1.5-1.6 2.2-2.4z" fill="#f0af6b"/><path d="M56.2 27.4c-1.1.4-2.2.9-3.3 1.2-.1 0-.2.1-.3.1 2.5 1.2 4.9 2.5 7.3 3.8l.1.1c2.4 1.4 4.8 2.9 7.1 4.5-.6-4.1-1.5-8.1-2.8-12.1-2.7.7-5.5 1.3-8.1 2.4z" fill="#f0af6b"/><path d="M67.8 30c.7 2.9 1.2 5.8 1.6 8.8 3.8 2.9 7.5 6.1 10.7 9.7 3.6-4.4 7.8-10.5 6.8-16.5-.8-4.8-5.4-7-9.7-7.6-3.6-.5-7.2-.3-10.8.3.5 1.7 1 3.5 1.4 5.3z" fill="#a8b980"/><path d="M69.7 41.5c.5 5.6.5 11.3 0 16.9 3.3-2.6 6.3-5.4 9.1-8.5-2.8-3-5.8-5.8-9.1-8.4z" fill="#ea7c60"/><path d="M77.9 53.9c-2.6 2.7-5.5 5.1-8.5 7.3-.3 2.6-.7 5.3-1.3 7.8-.5 2.1-1 4.2-1.7 6.3 5.3.9 11.9 1.3 16.7-1.7 4.3-2.7 4.5-7.7 3-12.1-1.3-3.7-3.5-7-6-10-.7.8-1.5 1.6-2.2 2.4z" fill="#f0af6b"/><path d="M60.1 75.9c-3.4-.9-6.8-2.1-10.1-3.5-4.4 1.9-9 3.4-13.7 4.4 1.9 5.2 5 11.5 10.3 13.9 4.5 2 8.8-.5 11.7-4 2.4-2.9 4.1-6.4 5.4-9.9-1.2-.2-2.4-.5-3.6-.9z" fill="#ea7c60"/><path d="M67.1 63.2v-.3c-2.3 1.6-4.6 3-7 4.4l-.1.1h-.1c-2.5 1.4-4.9 2.7-7.5 3.9 3.8 1.5 7.8 2.8 11.9 3.6l.3-.9c1.2-3.5 2-7.1 2.5-10.8z" fill="#a8b980"/><path d="M32.2 70c-.7-2.9-1.2-5.8-1.6-8.8-2.6-2-5.2-4.1-7.6-6.4-1.1-1-2.1-2.1-3.1-3.2-3.6 4.3-7.8 10.4-6.8 16.4.8 4.8 5.4 7 9.7 7.6 3.6.5 7.2.3 10.8-.3-.5-1.8-1-3.5-1.4-5.3z" fill="#a8b980"/><path d="M28.9 57.3l1.5 1.2c-.5-5.6-.5-11.3 0-16.9-3.3 2.6-6.3 5.4-9.1 8.5 1.2 1.3 2.4 2.5 3.6 3.7 1.2 1.2 2.7 2.2 4 3.5z" fill="#ea7c60"/><path d="M45 72.2l2.4-.9c-2.5-1.2-5-2.4-7.3-3.8l-.1-.1s-.1 0-.1-.1c-.9-.5-1.8-1-2.7-1.6-1.5-.9-2.9-1.9-4.3-2.9.6 4.1 1.5 8.1 2.8 12.1 3.1-.6 6.3-1.6 9.3-2.7z" fill="#f0af6b"/><metadata xmlns:d="https://loading.io/stock/"><d:name>atom</d:name><d:tags>nuclear,electron,core,science,experiment,radiation,atom,spinner</d:tags><d:license>pro</d:license><d:slug>9n0412</d:slug></metadata></svg>