<svg viewBox="0 0 960 960" xmlns="http://www.w3.org/2000/svg" xmlns:xlink="http://www.w3.org/1999/xlink" id="06060bd1-7e4c-48d0-bd61-be6744d9e34d" overflow="hidden"><path d="M345.532 243.494 345.532 241.494 287.532 241.494 287.532 184.494 285.532 184.494 285.532 241.494 227.532 241.494 227.532 185.494 225.532 185.494 225.532 300.962 167 300.962 167 302.962 225.532 302.962 225.532 351.494 227.532 351.494 227.532 302.962 285.532 302.962 285.532 323.494 287.532 323.494 287.532 302.962 345 302.962 345 300.962 287.532 300.962 287.532 243.494 345.532 243.494ZM285.532 300.961 227.532 300.961 227.532 243.493 285.532 243.493 285.532 300.961Z" fill="#E6E6E6"/><path d="M694 302.058 694 300.058 635 300.058 635 244.494 633 244.494 633 300.058 573 300.058 573 242.994 660 242.994 660 240.994 514.23 240.994 514.23 140.724 512.23 140.724 512.23 240.994 454 240.994 454 182.293 512 182.293 512 180.293 454 180.293 454 140.954 452 140.954 452 240.994 432.195 240.994 432.195 242.994 452 242.994 452 300.058 452 302.058 452 362.494 452 364.494 452 367.994 454 367.994 454 364.494 512.23 364.494 512.23 471.494 514.23 471.494 514.23 364.494 571 364.494 571 405.494 573 405.494 573 364.494 633 364.494 633 403.494 635 403.494 635 364.494 694 364.494 694 362.494 635 362.494 635 302.058 694 302.058ZM571 242.994 571 300.058 514.23 300.058 514.23 242.994 571 242.994ZM454 242.994 512.23 242.994 512.23 300.058 454 300.058 454 242.994ZM454 362.494 454 302.058 512.23 302.058 512.23 362.494 454 362.494ZM514.23 362.494 514.23 302.058 571 302.058 571 362.494 514.23 362.494ZM633 362.494 573 362.494 573 302.058 633 302.058 633 362.494Z" fill="#E6E6E6"/><g><g><path d="M348.926 730.954 328 730.954C328 730.954 175.679 693.8 175.679 540.774 175.679 405.954 305.8 366.6 305.8 366.6L303.46 472.431C263.542 472.431 231.182 504.791 231.182 544.709L231.182 544.709C231.182 638.953 316.203 629.73 316.203 629.73L348.926 629.73 348.926 730.954Z" fill="#E6E6E6"/><path d="M363 309 363 353.48 291 353.48C291 353.48 155 405.953 155 540.773 155 644.212 233.628 730.953 328.247 730.953L328.247 629.73 295.524 629.73C295.524 629.73 210.503 638.953 210.503 544.709L210.503 544.709C210.503 504.791 242.863 472.431 282.781 472.431L363 472.431 363 502 427 502 427 309 363 309Z" fill="#D2D2D2"/></g><g><rect x="363" y="622" width="64" height="21.44"/><rect x="300" y="602.994" width="187" height="28" fill="#2F2F2F"/></g><g><rect x="374" y="186.032" width="42" height="122.075" fill="#FFC000"/><rect x="356" y="301.954" width="78" height="14" fill="#505050"/><rect x="371" y="181.994" width="48" height="6"/></g><g><rect x="342" y="549.954" width="18" height="9" fill="#2F2F2F"/><rect x="430" y="549.954" width="18" height="9" fill="#2F2F2F"/><rect x="386" y="549.954" width="18" height="9" fill="#2F2F2F"/><rect x="424" y="515.954" width="30" height="36.5" fill="#D2D2D2"/><rect x="380.5" y="515.954" width="30" height="36.5" fill="#D2D2D2"/><rect x="336" y="515.954" width="30" height="36.5" fill="#D2D2D2"/><path d="M463 515.954 456.091 517.156C415.014 524.3 373.004 524.194 331.964 516.843L327 515.954 327 515.954C327 504.08 336.626 494.454 348.5 494.454L441.5 494.454C453.374 494.454 463 504.079 463 515.954L463 515.954Z" fill="#505050"/></g><g><path d="M313 759.954 217.21 759.954 268.867 658.119C272.758 650.448 280.63 645.614 289.232 645.614L289.232 645.614C302.359 645.614 313 656.255 313 669.382L313 759.954Z" fill="#505050"/><path d="M309 759.954 213.21 759.954 264.867 658.119C268.758 650.448 276.63 645.614 285.232 645.614L285.232 645.614C298.359 645.614 309 656.255 309 669.382L309 759.954Z" fill="#737373"/><circle cx="284" cy="673.954" r="15" fill="#D2D2D2"/><circle cx="260.5" cy="700.454" r="7.5" fill="#2F2F2F"/><path d="M513 781.494 153 781.494 153 781.494C153 760.507 170.013 743.494 191 743.494L513 743.494 513 781.494Z"/></g><g><path d="M316 420.954C331.164 420.954 343.408 408.453 342.99 393.195 342.587 378.489 330.151 366.954 315.439 366.954L301.1 366.954C301.045 366.954 301 366.999 301 367.054L301 420.854C301 420.909 301.045 420.954 301.1 420.954L316 420.954" fill="#2F2F2F"/><circle cx="303" cy="393.954" r="27"/><circle cx="303" cy="393.954" r="13.5" fill="#737373"/></g><g><path d="M298.5 464.954C308.941 464.954 317.362 456.304 316.988 445.779 316.632 435.754 308.088 427.954 298.057 427.954L289.6 427.954C289.545 427.954 289.5 427.999 289.5 428.054L289.5 464.854C289.5 464.909 289.545 464.954 289.6 464.954L298.5 464.954Z" fill="#2F2F2F"/><circle cx="289.5" cy="446.454" r="18.5"/><circle cx="289.406" cy="446.454" r="10.406" fill="#2F2F2F"/></g><g><path d="M367.679 687.567 365.457 688.144 348.132 692.646C348.079 692.66 348.046 692.714 348.06 692.768L350.447 701.953 343.66 701.953 343.66 696.094 333.66 696.094 333.66 714.953 343.66 714.953 343.66 707.953 352.006 707.953C352.006 707.953 353.377 713.231 353.381 713.243 354.813 718.755 362.82 721.966 374.416 722.622 375.009 722.656 375.676 722.405 375.978 721.916L367.679 687.567Z" fill="#2F2F2F"/><path d="M454.418 665.029 365.457 688.145 374.416 722.623C384.652 723.202 397.685 721.79 411.46 718.211 440.839 710.577 462.47 695.976 459.774 685.599 459.771 685.587 454.431 665.037 454.431 665.037 454.429 665.031 454.423 665.028 454.418 665.029Z" fill="#505050"/><ellipse cx="401.084" cy="678.281" rx="54.962" ry="19.413" fill="#D2D2D2" transform="matrix(0.9679 -0.2515 0.2515 0.9679 -157.689 122.667)"/><ellipse cx="401.111" cy="678.384" rx="35.333" ry="12.48" fill="#F2F2F2" transform="matrix(0.9679 -0.2515 0.2515 0.9679 -157.714 122.677)"/></g></g><circle cx="630.5" cy="454.994" r="22.5" fill="#E6E6E6"/><circle cx="591" cy="508.494" r="14" fill="#E6E6E6"/><circle cx="700.5" cy="505.994" r="36.5" fill="#FFC000"/><g><path d="M621.588 794.149 603.686 742.987C603.686 742.987 580.2 735.134 552.8 735.134 525.4 735.134 501.914 742.987 501.914 742.987L484.012 794.149C480.857 806.772 490.404 819 503.416 819L602.186 819C615.197 819 624.744 806.772 621.588 794.149Z" fill="#FFC000"/><path d="M577.801 669 577.801 596.424 527.801 596.424 527.801 669 501.914 742.987 603.687 742.987Z" fill="#E4E4E4"/><circle cx="592.98" cy="765.487" r="5" fill="#FFFFFF"/><circle cx="580.48" cy="782.987" r="7.5" fill="#FFFFFF"/><rect x="539" y="583.494" width="27.5" height="62.506" fill="#C4C4C4"/><path d="M580.051 602.987 525.551 602.987C523.342 602.987 521.551 601.196 521.551 598.987L521.551 596.987C521.551 594.778 523.342 592.987 525.551 592.987L580.051 592.987C582.26 592.987 584.051 594.778 584.051 596.987L584.051 598.987C584.051 601.196 582.26 602.987 580.051 602.987Z" fill="#E4E4E4"/></g><g><path d="M623.009 744.691C623.007 744.795 623 744.896 623 745L623 745C623 786.421 656.579 820 698 820L698 820C739.422 820 773 786.421 773 745L773 745C773 744.896 772.993 744.795 772.993 744.691 772.993 744.691 730.467 737.133 698 737.133 665.533 737.133 623.009 744.691 623.009 744.691Z" fill="#C4C4C4"/><path d="M794.416 659.535 790.602 655.721C784.333 649.452 774.169 649.452 767.9 655.721L740.44 683.18C735.086 679.498 729.234 676.489 723 674.284L723 597.424 673 597.424 673 674.284C643.969 684.55 623.14 712.173 623.009 744.691L772.993 744.691C772.945 732.776 770.108 721.524 765.117 711.536L794.416 682.237C800.685 675.968 800.685 665.804 794.416 659.535Z" fill="#E4E4E4"/><rect x="774.099" y="639.85" width="20.625" height="51.749" fill="#C4C4C4" transform="matrix(0.7071 0.7071 -0.7071 0.7071 700.487 -359.677)"/><path d="M803.107 675.933 774.204 647.03C773.032 645.858 773.032 643.959 774.204 642.787L775.265 641.726C776.437 640.554 778.336 640.554 779.508 641.726L808.411 670.629C809.583 671.801 809.583 673.7 808.411 674.872L807.35 675.933C806.178 677.104 804.278 677.104 803.107 675.933Z" fill="#E4E4E4"/><circle cx="681" cy="759.5" r="5" fill="#FFFFFF"/><circle cx="670.75" cy="786.25" r="6.25" fill="#FFFFFF"/><circle cx="722.5" cy="764" r="7.5" fill="#FFFFFF"/><rect x="684" y="584.994" width="27.5" height="62.506" fill="#C4C4C4"/></g></svg>